<svg version="1.1" viewBox="0.0 0.0 803.3569553805775 377.62729658792654" fill="none" stroke="none" stroke-linecap="square" stroke-miterlimit="10" xmlns:xlink="http://www.w3.org/1999/xlink" xmlns="http://www.w3.org/2000/svg"><clipPath id="p.0"><path d="m0 0l803.35693 0l0 377.6273l-803.35693 0l0 -377.6273z" clip-rule="nonzero"/></clipPath><g clip-path="url(#p.0)"><path fill="#000000" fill-opacity="0.0" d="m0 0l803.35693 0l0 377.6273l-803.35693 0z" fill-rule="evenodd"/><path fill="#000000" fill-opacity="0.0" d="m22.713911 300.44095l758.04724 -1.5118103" fill-rule="evenodd"/><path stroke="#000000" stroke-width="4.0" stroke-linejoin="round" stroke-linecap="butt" d="m22.713911 300.44095l758.04724 -1.5118103" fill-rule="evenodd"/><path fill="#000000" fill-opacity="0.0" d="m25.758162 300.44116c0 -20.041992 -19.788715 -95.8972 0 -120.25197c19.788713 -24.354767 82.960625 -1.0139923 118.732285 -25.876633c35.771652 -24.862656 34.755905 -102.74935 95.89763 -123.29922c61.14174 -20.54987 209.81102 -20.29615 270.95276 0c61.141693 20.296152 55.305756 93.108925 95.89761 121.77689c40.591858 28.667984 118.22443 25.622498 147.65356 50.230972c29.429138 24.60849 24.101013 81.18329 28.921265 97.41995" fill-rule="evenodd"/><path stroke="#000000" stroke-width="4.0" stroke-linejoin="round" stroke-linecap="butt" d="m25.758162 300.44116c0 -20.041992 -19.788715 -95.8972 0 -120.25197c19.788713 -24.354767 82.960625 -1.0139923 118.732285 -25.876633c35.771652 -24.862656 34.755905 -102.74935 95.89763 -123.29922c61.14174 -20.54987 209.81102 -20.29615 270.95276 0c61.141693 20.296152 55.305756 93.108925 95.89761 121.77689c40.591858 28.667984 118.22443 25.622498 147.65356 50.230972c29.429138 24.60849 24.101013 81.18329 28.921265 97.41995" fill-rule="evenodd"/><path fill="#000000" d="m539.1811 297.02887l0 0c0 -31.528076 25.558533 -57.08661 57.08661 -57.08661l0 0c15.14032 0 29.660522 6.0144653 40.366333 16.720276c10.705811 10.705811 16.720276 25.226013 16.720276 40.366333l0 0c0 31.528076 -25.558533 57.08661 -57.08661 57.08661l0 0c-31.528076 0 -57.08661 -25.558533 -57.08661 -57.08661z" fill-rule="evenodd"/><path stroke="#000000" stroke-width="4.0" stroke-linejoin="round" stroke-linecap="butt" d="m539.1811 297.02887l0 0c0 -31.528076 25.558533 -57.08661 57.08661 -57.08661l0 0c15.14032 0 29.660522 6.0144653 40.366333 16.720276c10.705811 10.705811 16.720276 25.226013 16.720276 40.366333l0 0c0 31.528076 -25.558533 57.08661 -57.08661 57.08661l0 0c-31.528076 0 -57.08661 -25.558533 -57.08661 -57.08661z" fill-rule="evenodd"/><path fill="#000000" d="m139.1811 297.02887l0 0c0 -31.528076 25.558548 -57.08661 57.08661 -57.08661l0 0c15.14032 0 29.660522 6.0144653 40.366333 16.720276c10.705811 10.705811 16.720276 25.226013 16.720276 40.366333l0 0c0 31.528076 -25.558548 57.08661 -57.08661 57.08661l0 0c-31.52806 0 -57.08661 -25.558533 -57.08661 -57.08661z" fill-rule="evenodd"/><path stroke="#000000" stroke-width="4.0" stroke-linejoin="round" stroke-linecap="butt" d="m139.1811 297.02887l0 0c0 -31.528076 25.558548 -57.08661 57.08661 -57.08661l0 0c15.14032 0 29.660522 6.0144653 40.366333 16.720276c10.705811 10.705811 16.720276 25.226013 16.720276 40.366333l0 0c0 31.528076 -25.558548 57.08661 -57.08661 57.08661l0 0c-31.52806 0 -57.08661 -25.558533 -57.08661 -57.08661z" fill-rule="evenodd"/><path fill="#000000" fill-opacity="0.0" d="m401.73752 31.026247l0 121.76378" fill-rule="evenodd"/><path stroke="#000000" stroke-width="4.0" stroke-linejoin="round" stroke-linecap="butt" d="m401.73752 31.026247l0 121.76378" fill-rule="evenodd"/><path fill="#000000" fill-opacity="0.0" d="m403.31235 152.79002l162.86612 0" fill-rule="evenodd"/><path stroke="#000000" stroke-width="4.0" stroke-linejoin="round" stroke-linecap="butt" d="m403.31235 152.79002l162.86612 0" fill-rule="evenodd"/><path fill="#000000" fill-opacity="0.0" d="m361.79004 35.582676l0 121.76378" fill-rule="evenodd"/><path stroke="#000000" stroke-width="4.0" stroke-linejoin="round" stroke-linecap="butt" d="m361.79004 35.582676l0 121.76378" fill-rule="evenodd"/><path fill="#000000" fill-opacity="0.0" d="m362.2126 155.83464l-171.99998 1.5118103" fill-rule="evenodd"/><path stroke="#000000" stroke-width="4.0" stroke-linejoin="round" stroke-linecap="butt" d="m362.2126 155.83464l-171.99998 1.5118103" fill-rule="evenodd"/><path fill="#000000" fill-opacity="0.0" d="m190.20473 158.87665c8.371826 -17.505264 21.562988 -84.228355 50.230972 -105.0315c28.667969 -20.80315 101.48074 -16.489502 121.776886 -19.787403" fill-rule="evenodd"/><path stroke="#000000" stroke-width="4.0" stroke-linejoin="round" stroke-linecap="butt" d="m190.20473 158.87665c8.371826 -17.505264 21.562988 -84.228355 50.230972 -105.0315c28.667969 -20.80315 101.48074 -16.489502 121.776886 -19.787403" fill-rule="evenodd"/><path fill="#000000" fill-opacity="0.0" d="m569.23096 154.31233c-10.147827 -16.490814 -33.23401 -78.90244 -60.887115 -98.94488c-27.653107 -20.04243 -87.526245 -17.758095 -105.031494 -21.309711" fill-rule="evenodd"/><path stroke="#000000" stroke-width="4.0" stroke-linejoin="round" stroke-linecap="butt" d="m569.23096 154.31233c-10.147827 -16.490814 -33.23401 -78.90244 -60.887115 -98.94488c-27.653107 -20.04243 -87.526245 -17.758095 -105.031494 -21.309711" fill-rule="evenodd"/><path fill="#000000" fill-opacity="0.0" d="m746.0465 197.51181c-3.0700073 5.287842 -23.707397 24.05162 -18.419983 31.727036c5.2874146 7.675415 41.786987 11.937881 50.14435 14.325455" fill-rule="evenodd"/><path stroke="#000000" stroke-width="4.0" stroke-linejoin="round" stroke-linecap="butt" d="m746.0465 197.51181c-3.0700073 5.287842 -23.707397 24.05162 -18.419983 31.727036c5.2874146 7.675415 41.786987 11.937881 50.14435 14.325455" fill-rule="evenodd"/><path fill="#000000" fill-opacity="0.0" d="m75.732285 168.85826c0 10.745407 9.210411 52.192047 0 64.47244c-9.210411 12.280411 -46.052055 7.674988 -55.262466 9.209976" fill-rule="evenodd"/><path stroke="#000000" stroke-width="4.0" stroke-linejoin="round" stroke-linecap="butt" d="m75.732285 168.85826c0 10.745407 9.210411 52.192047 0 64.47244c-9.210411 12.280411 -46.052055 7.674988 -55.262466 9.209976" fill-rule="evenodd"/><path fill="#000000" fill-opacity="0.0" d="m18.422573 208.76903l59.370075 -6.1417236" fill-rule="evenodd"/><path stroke="#000000" stroke-width="4.0" stroke-linejoin="round" stroke-linecap="butt" d="m18.422573 208.76903l59.370075 -6.1417236" fill-rule="evenodd"/></g></svg>